/* XPM */
static char *dbd177193b4b4217b51f7528963362ccJn8gm906aZpvp7n6[] = {
/* columns rows colors chars-per-pixel */
"64 64 162 2 ",
"   c #430000",
".  c #4C0202",
"X  c #530404",
"o  c #5B0505",
"O  c #540909",
"+  c #5B0A0A",
"@  c #561010",
"#  c #5E1010",
"$  c #620606",
"%  c #640B0B",
"&  c #6B0C0C",
"*  c #710E0E",
"=  c #641212",
"-  c #6C1313",
";  c #6D1B1B",
":  c #741414",
">  c #7A1515",
",  c #741B1B",
"<  c #7C1A1A",
"1  c #742222",
"2  c #7B2222",
"3  c #762828",
"4  c #7B2A2A",
"5  c #7E3131",
"6  c #821D1D",
"7  c #881E1E",
"8  c #842323",
"9  c #8B2525",
"0  c #842B2B",
"q  c #8D2A2A",
"w  c #912727",
"e  c #932D2D",
"r  c #982F2F",
"t  c #853333",
"y  c #8D3333",
"u  c #8E3B3B",
"i  c #943232",
"p  c #9B3434",
"a  c #943B3B",
"s  c #9D3A3A",
"d  c #A13636",
"f  c #A33C3C",
"g  c #A83E3E",
"h  c #8C4040",
"j  c #954343",
"k  c #9C4242",
"l  c #9F4D4D",
"z  c #9F5050",
"x  c #A54242",
"c  c #AB4444",
"v  c #A54B4B",
"b  c #AC4A4A",
"n  c #B14747",
"m  c #B34C4C",
"M  c #A45151",
"N  c #A95353",
"B  c #AF5858",
"V  c #B55252",
"C  c #BA5454",
"Z  c #B35C5C",
"A  c #BE5A5A",
"S  c #B56060",
"D  c #BE6262",
"F  c #BB6969",
"G  c #C15D5D",
"H  c #C56262",
"J  c #C96666",
"K  c #C66B6B",
"L  c #CE6B6B",
"P  c #CE6A6A",
"I  c #CD6A6A",
"U  c #CF6C6C",
"Y  c #CF6D6D",
"T  c #CC6E6E",
"R  c #CF6E6E",
"E  c #CC6A6A",
"W  c #D06D6D",
"Q  c #D16E6E",
"!  c #D16F6F",
"~  c #D26F6F",
"^  c #D16E6E",
"/  c #CA7373",
"(  c #CC7272",
")  c #CD7A7A",
"_  c #CF7878",
"`  c #D07070",
"'  c #D17171",
"]  c #D27070",
"[  c #D37070",
"{  c #D37171",
"}  c #D37373",
"|  c #D47171",
" . c #D57272",
".. c #D57373",
"X. c #D57575",
"o. c #D77474",
"O. c #D77575",
"+. c #D67575",
"@. c #D67676",
"#. c #D47373",
"$. c #D87575",
"%. c #D87676",
"&. c #D97676",
"*. c #DA7777",
"=. c #D97676",
"-. c #D77878",
";. c #D77979",
":. c #D67A7A",
">. c #D87878",
",. c #D97878",
"<. c #DA7878",
"1. c #DB7878",
"2. c #DA7979",
"3. c #DA7A7A",
"4. c #DB7A7A",
"5. c #DC7979",
"6. c #DD7A7A",
"7. c #DC7B7B",
"8. c #DE7B7B",
"9. c #DA7C7C",
"0. c #DB7D7D",
"q. c #DC7C7C",
"w. c #DD7C7C",
"e. c #DD7D7D",
"r. c #DE7C7C",
"t. c #DE7D7D",
"y. c #DD7F7F",
"u. c #DE7E7E",
"i. c #DF7E7E",
"p. c #DC7B7B",
"a. c #E07F7F",
"s. c #E07F7F",
"d. c #D68080",
"f. c #DD8181",
"g. c #DE8080",
"h. c #DF8080",
"j. c #DE8181",
"k. c #DF8181",
"l. c #DF8282",
"z. c #DF8484",
"x. c #DF8585",
"c. c #DD8181",
"v. c #DF8A8A",
"b. c #E18181",
"n. c #E18484",
"m. c #E38585",
"M. c #E38787",
"N. c #E28484",
"B. c #E38888",
"V. c #E68A8A",
"C. c #E58C8C",
"Z. c #E48A8A",
"A. c #E98E8E",
"S. c #E89292",
"D. c #EC9696",
"F. c #ED9696",
"G. c #EB9292",
"H. c #ED9A9A",
"J. c #F09A9A",
"K. c #F4A6A6",
"L. c #F6A6A6",
"P. c #F5A3A3",
/* pixels */
"H H H H J 8.L $.J G ! <.8.8.8.<.+.! ..J G A H J ..<.t.t.t.b.k.k.8.8.+.$.[ L G L 8.[ H H H H m m ! ....J J U J [ I ..<.! J L G A ",
"H H I I $.$.8.<.........L L H C b 1 0 ;.m m C V V H L ! ! [ ..$.t.t.$.8.[ H J J V g b A C m C G L H H I H H H H U ..U d H p C V ",
"H H H G t.k.t.k.t.t.8.8...U L C s < X = C F.= 2 z.I J U ..t.8.+.U t...J C [ m H 0 % A p m c ;.m C J H H H H H H H k.O K , + f m ",
"H H m k.<.a.t.k.J G J ! ..8.J H p H k.! x K.#   / [ A ..8.t.8.t.! 8.U v O +.+ b 1 H V p p A C A H H $.U J H G C G.# , z.. , - < ",
"H H x M.U L i p C k.9.8.t.<.L A C 9 v 9.p 2 u i A J A L $.8.8.8.8.! C.O B v 2 0 < a H % d m A A L H [ U H C m G m d V J e c : e ",
"H J 8 <.B.: A t.J H I <.M.M.8.L G 9 I p 9 i =   V V.A J ..8.8.+.[ H 0 _ H 8.<.F   v o x A G A ! J [ I G m m A G   O q < 9 x V 9 ",
"G x % C F.U x q C ! $.b.b.t.+...m C p c g K.+ , [ x V I $.8.<.[ c H m <.8.8.$.[ U O V C A A L ! I J G m x C C =     q     A a x ",
"A 8   C J ..= A I H G [ 8.t.<.G x e o J G x g p b I <.t...+...<.V s t.8.8.8.+.I ; V C C A H ..G ! G n c m H m + 0 8 V   X a O , ",
"m & X % H F.H m p x G $.8.! G g p x V 0 o D d G $.8.8.L G J L A m V a.8.$.8...8 b m C g A J A U G c d d C f A p 2   A 6 V >   X ",
"< <   . x 9.! & b A G ! G A G A U f & . b I C [ 8.$.I g A H G m 9 H $.8.<.H G x d m m m L A +.G C r p G x V 1 &   . a m A i & : ",
": + & . 2 c F.L m C g d m H G $.f < > 8 b.<.J I J 8.6 d d C C V p A J ! [ C b r - H p m [ C [ C p q H 0 : k =   X &   I p C s 0 ",
"9 p >     p k.<.A ; 8 d c G $.J 9 p q ! 2 p +.I c > * p s A m i x V C A m c x b i J d +.c 9.g p q < J 6 g p =   %   6 d.= a [ b ",
"b r >   . % H A.B.. 6 q b H ! i c p J O   & + 0   & 9 g x G m , i g p x . c $.m U H A ! q d.e 6 6 > x m 9 r = X X s < M.O l A H ",
"r & 9 o X   b ..I G % x C b r b m #.@   1 a 5   X : r b m : I % < 8 8 + . :.C + . O O C m U : > 6 < A e 8 e > & C > N 8 8 B.8 & ",
"c b 8 - X   8 , ! V.d p 9 6 g g U a , S M z ;   % 6 r V C 6 I X < & o e b _ O O   . q ; O 9.% : 8 V p q w s 6 I = + C.= a ;.0 = ",
"G C n w .     : C V.G : % q r J b U V ( O _ ;   6 8 w m m d C . % X 8 H k.m J b B.v . q   2 s & i q 8 9 C c V m V % J 2 G.V b + ",
"2 > , & .     . r H K.1 - 8 C 1 q - 9.v   [ d.X 9 9 9 x g b I     < 9.k O ; + x m e s C   . = 9 b : p C A A m 0 v a = ..J b D . ",
"q r w >   & .   % G G D = m @ . $ q V.x h I H.< w r & 9 C x k   + #.1     % C V i b H 0 2 O % e d 9 m A G m s X 2 j a V m c m o ",
"* & & < o 6 $     0 b V.C O & % f < I [ p H d.b 6 m O x m m a   s t     ; b ,       # 4 _ s o < q m g A b b 6 % t p i H x f s * ",
".   X * * + %       x k.N ; = c <.c 6 I m V a T : p 9 e + J 4 X C .   O k .           . y + < i < f d p m g p + a d p J s s 8 p ",
"    . o o . X X % . 9 J V p > A L I c k V 8 p C q c p   < G ; % 0     q O           . . O   , 9 0 9 6 r x m m X J p d C 9 g & i ",
"  . % . $ X X < q . < q A d 9 J A +.G < b p ; < m H O > 8 c : i = . , + . .   .         O . & % i o > 9 A H p % +.p p p > H 8 < ",
"$ $ % % o % o < > .   j U d m G G [ e x 2 0   u m u < e 6 x < p %   9 > X   .   +   .   . % o X = > % a H J 8 r b k < $ m H b > ",
"< > % > . < & C = = , - G.C A A A C a i q % . = A i 9 q p i > r : O p - < . O   X . . o . X - . X X % 9 8 J & b 9 x O i < - < O ",
"< 8 & < o % 9 m p p O q ;.C C V A s C 6 > = . = U 1 w r C < - r & % g + r . o   % . o o o o < . = O X #.1 A % f & : % , G A 9 . ",
"8 e > q & X g c m + - m [ b d c g b d q 9 & . Z J ; p V d < : q - , c + p X ; + o o % X 9 $ 9 O % O + P.= G q t X r % b C [ i < ",
"9 p > q *   V V G o 9 C ! 9 6 w 9 A d x 9   v g A q A > % q % 6 < 2 d < p - 1 % < : X < r & 8 = o . y P.+ V 8 a   b o C m J C x ",
"9 d < q & . V D [ o x G U $ & < f m : b O 0 C 2 G H = g % i - r > , d e g > < $ 6 <   9 q > 9 <   O v J.= i q s . r : d C m e G ",
"8 d : q + : C A L % #.G j   o o +.s X 8 = A O T C ; k d V : , s 2 % d > d 9 6 > q 8 O w e 8 r & X # A G.; 8 i #.. o & d m < < C ",
"6 p X 6 6 . J V A 6 t.b a   . + k.8 . > f O O L L & b V 8 + y r C X d g < % p < s ; o w e 9 p & , + C B.1 : c g - : > : *   8 % ",
"9 9 : p + o b b G r m > x 0 p m [ . % m + $ . ( c a c < % o p r U X A m - = b < c = $ 9 9 r g % 0 + f t.0 . U % : s q = > + % O ",
"s p < : 8 p 9 a m g 9 o : 8 & A p   J , < o u A x d > . % k ; w I = J f x w a & x e . 8 < 9 b + i = : J x   K 8 = p g > 2 - o & ",
"= g o e p , 8 m d b O % $ : - 9 i Z x % < o J p p + o X X L O , b 9 G s d c r + V - = 9 % < b $ g 5 i 9 C % 0 k & 6 m o , % o * ",
"9 p 8 p o % p b p C . . X % : 9 r p 9 < 6 J x p + o : O j V o = r b m m 2 J V   p - - < i & d : < N a b d V - K = % G $ > % o < ",
"6 d x < > < q b 2 C O . . & p + p % C 9 c C p = , > . a 2 > d $ 8 g D b x V.G.a - C 9 6 & r b 9 > J m j = H C K % . C & : % . 9 ",
"p c 9 e < p < A + G X o % 6 < > - i G - H r w & & = b x . , % V : 6 G C ..<.t.J : 0 a s : 6 q : < / C J   x ;.y <   m : % o   < ",
"x b e 8 x d 6 d q . 6 & & q . q + x b : D 6 % & c C 2 q $ 2 O A X < C ! [ H J 8.w a % , C - e , % V 2 A ; m - + p + c 6 & o X & ",
"C g p m G m p 0 V O - o   - % O < V a D < & r G d O   e 0 q . O o < G +.J G A +.s r & 8 8 x 9 6   b s O > q   , b < a 8 : & o % ",
"C m d 9 b C w % . < X 8 : q & X p C H q r A b 8 $ X ; ; x 8 <   $ 8 A I G A C J q 9 9 9 q d p q & r x O . 8 0 f H.r 0 d > > % X ",
"C e + 8 A G e . = p : O = O   < b [ 9 H G 9 c m o , f = T 0 ,   9 8 d A m m m G 8 > m e 9 p m < . : - U q J U U [ g 9 d < o 9 & ",
", $ : i H G <   < r <   o   & r ..f H m C <.m 6 8 b 8 8 V 9 9 . w r - G m m n C < 9 , C m i G p & . 9 q H i m 6 q C b r 8 < 6 6 ",
"o 9 i x J G # % O < + X . . q ;.i A m H 8.I p a s : - . v.- - . 8 i & G b g d C = i X   ; c G m 6 % < 6 q : H x r V H e 6 2   2 ",
"6 m s b ! L + & 9 X     $ v Z p H : 2 m V f 2 b X &   a A.i 6   2 c + m c p 9 C . a +   X < a [ d q . w 6 9 V G x b ! g 6 < . . ",
"b c m b A U o 9 p o   % d V p t ;.8 = 0 k 1 J o : s r : J - > X . m . p 9 8 : n X g + *   x ; q G m = O m 9 m H H C ..n < p $ % ",
"+.p G m m H & p < < O V O $ a J 1 p X < = L f x 0 o = p A A :   = b   p % : o p . e o , = < e , x n e . m J b H $.U ! m 6 - a > ",
"C.p G L x b 6 r r 9 p + 9 #.J - - ( g O m C q & & . a C g f &   e 0 2 9   : . 8 = 2 q . p 2 % a 0 C d O p H I ..+.[ J H < < 2 i ",
"M.w A ! d g g C A y = d q s i + 2 t X s g : 8 q > X K +.- % q X t % i   $ X + . x o , = a 9 9 & I 8 C : 9 m G I G A C G & y % d ",
"H x b I g C 8.V.q x J m - O .   p . 8 9 - p 9 J U G G.H p b m : a m o           O q O b % C r 8 q K d x 6 q c m C C p 9.+ % p 9 ",
"b <.g ! G ..t.x I [ m & . . O % , > < > V r A J V e H i - d < 3 p g o   . X .   % 2 1 j a , H g 9 z.w C 6 $ H r b p < ( r . e d ",
"m ;.A H $.<.J 8.+.g & o > 6 i m V - & V V r C f + X : . . s & c O q :   o o .   & O f + J w A V b C V i b $ j s 9 - : % s % 6 : ",
"m G $.! t.8...L m e 6 x w ;.m ( e % c C d q %   : X : X O q < < + A &   & : X X s   A x 9 c C H C n <.r A % 0 A p = -   a 4 : 6 ",
"m C ....8.8.I H C m m $.C L G r : c m V c w o , O m & & 6 c g p - G >   > 9 + O p   & G m p 6 H J V ! d p a a O = 2 - p i < : * ",
"n C +.+.$.8.8.+.! C L [ m k.r = c G m C g r . 9 2 V > X % $ 8 < - G 6   9 C = - p i . J J p O e H H J x C 8 b : y C : w % > : % ",
"d G I H G H ! L G C <.H U V + g b G m C c > m O d.d e & : < p p < L p . x C 0 < i q X C C U . & c I H C C C 8 X < x C < > + 9 > ",
"d G m d m J ..A J k.C k.p : r C C A A C e p p , ;.g 9 < m d d V w [ s o m C b 2 m s $ m d 9.u X q G A G G H f : $   0 b < . y 6 ",
"C b r p m +.H I 8.[ C C x d g G H A A g p A % H I n p * < 6 6 b K U d X A C m 0 f s x H p p 9.a < m H A G H d p 8 X   2 A X . f ",
"x > q g G ..<.U [ m m m C m A H H A m x U 6 & [ J c C s < e b w 9.U i q A m b Z m & A J m 6 i ..d J [ A [ J A c x 6 . X [ 8 $ = ",
"O 8 p m $.<.! ..C H G A I H H G H A d L b f % M.J m m C b , ! C a.[ < g A m b c m 8 v I V i & - H U A V ..C A C m g - $ f b 9 o ",
"$ 9 m J 8.8.<.H +.J G L ! H J H G A i 8 G #.7 b.G A A m b q G +.p b > g A d g I C d C G b c X * < A m f J x C H g J d & 9 L p p ",
"< p H t.t...m $.! H L H H H I H A x w q +.x 9 M.J G A A g d m d x 6 6 d A g d m m x d x V x $ : > C m p m d L G d 9.C p e V m V ",
"n H k.t.L C G I H ! t.J H ! H H C d p b U 9 p M.L I H A x d 8 H C I : p C e J - H c C 9 g L & : < b b e d d ! A p ;.H A m g C L ",
"8.A J V A G C H H +.k.M.L $.I H G m m A H 6 x +.$.H I A G , i +.G m & r m x V t / b x q < c V : < r d r r c J x A H J I G C m H ",
"L +.b s J A c C H J $.t.M.B.$.H H A n A H 9 p p A ! U G C 8 m J H A p 9 C m 9 V s V G w < > m 9 < w d 9 p G L p t.m U A J H A I ",
"V t.L C A A x e m b m ! k.V.M...[ H m V H c f 9 > q V b > 9 A H k.H g > f C q p i +.x #.8 p w p 9 w r w m L U H U m U G G ..[ [ "
};
