/* XPM */
static char *c1963b6f71274cdd9d1100b113ba4622paVV5T9e0mHf03U7[] = {
/* columns rows colors chars-per-pixel */
"64 64 227 2 ",
"   c #1C0D0C",
".  c #1A140C",
"X  c #17160A",
"o  c #101010",
"O  c #230B0B",
"+  c #2B0B0B",
"@  c #2F0A07",
"#  c #330606",
"$  c #3B0503",
"%  c #300B01",
"&  c #3A0B06",
"*  c #231000",
"=  c #24150B",
"-  c #241C0C",
";  c #2C1C0A",
":  c #281009",
">  c #371408",
",  c #331D0C",
"<  c #3E190B",
"1  c #211D13",
"2  c #2E220D",
"3  c #2B260E",
"4  c #32220E",
"5  c #3E230E",
"6  c #2A2214",
"7  c #2E2719",
"8  c #282418",
"9  c #342413",
"0  c #3B2413",
"q  c #352B13",
"w  c #3C2C15",
"e  c #362B1B",
"r  c #3D2E1A",
"t  c #31261B",
"y  c #2E361E",
"u  c #353017",
"i  c #3D3116",
"p  c #343118",
"a  c #3D321C",
"s  c #392C26",
"d  c #393728",
"f  c #343434",
"g  c #2A2A2A",
"h  c #440303",
"j  c #4C0000",
"k  c #4C0A05",
"l  c #4C0E09",
"z  c #440E05",
"x  c #540202",
"c  c #5B0505",
"v  c #540906",
"b  c #540E09",
"n  c #5C0D0A",
"m  c #5B0A06",
"M  c #451207",
"N  c #44140A",
"B  c #4B150C",
"V  c #4C1B0E",
"C  c #461E0D",
"Z  c #53150D",
"A  c #5B130D",
"S  c #53190E",
"D  c #461D10",
"F  c #4B1D13",
"G  c #451010",
"H  c #571610",
"J  c #5C1711",
"K  c #521C12",
"L  c #5B1B14",
"P  c #610606",
"I  c #640908",
"U  c #6B0C0B",
"Y  c #6D0803",
"T  c #710E0E",
"R  c #740000",
"E  c #61130D",
"W  c #69110E",
"Q  c #611311",
"!  c #6B1312",
"~  c #641B14",
"^  c #6A1A15",
"/  c #691F19",
"(  c #741313",
")  c #7B1818",
"_  c #751917",
"`  c #46200E",
"'  c #49200F",
"]  c #432414",
"[  c #4B2315",
"{  c #422A15",
"}  c #452719",
"|  c #4B2519",
" . c #422D1A",
".. c #4C2B1C",
"X. c #522215",
"o. c #5A2316",
"O. c #56231A",
"+. c #5C241A",
"@. c #532B1D",
"#. c #5C2A1B",
"$. c #532917",
"%. c #403017",
"&. c #43321C",
"*. c #4A351C",
"=. c #4D391E",
"-. c #493417",
";. c #53321C",
":. c #523B1E",
">. c #6B221B",
",. c #642319",
"<. c #77251D",
"1. c #61361E",
"2. c #68331F",
"3. c #4D2E20",
"4. c #542E21",
"5. c #5D2D21",
"6. c #463422",
"7. c #4B3523",
"8. c #403B25",
"9. c #4C3A25",
"0. c #453C29",
"q. c #4D3B29",
"w. c #543324",
"e. c #5A3324",
"r. c #533C25",
"t. c #5A3D25",
"y. c #553729",
"u. c #5B3629",
"i. c #533E2B",
"p. c #5C3D2B",
"a. c #473C32",
"s. c #662A21",
"d. c #712B23",
"f. c #633325",
"g. c #623B21",
"h. c #623729",
"j. c #623C2C",
"k. c #6B3726",
"l. c #783526",
"z. c #663E31",
"x. c #7F3B34",
"c. c #4C422C",
"v. c #47422A",
"b. c #564126",
"n. c #5A4125",
"m. c #55422D",
"M. c #5B442C",
"N. c #5E492D",
"B. c #57482F",
"V. c #554432",
"C. c #5B4633",
"Z. c #564A35",
"A. c #5A4934",
"S. c #5D4A36",
"D. c #5E4C36",
"F. c #5C4A35",
"G. c #5E4B38",
"H. c #53493D",
"J. c #4A4A32",
"K. c #624324",
"L. c #694626",
"P. c #62442B",
"I. c #68462B",
"U. c #644A2D",
"Y. c #6B4A2D",
"T. c #6C4926",
"R. c #734C29",
"E. c #774B2A",
"W. c #624C35",
"Q. c #694D34",
"!. c #624D3A",
"~. c #624C3C",
"^. c #634D3B",
"/. c #664535",
"(. c #734C3B",
"). c #734D30",
"_. c #6A5335",
"`. c #625139",
"'. c #66523D",
"]. c #64513C",
"[. c #68523E",
"{. c #695639",
"}. c #76583D",
"|. c #7A512B",
" X c #6A5341",
".X c #6C5941",
"XX c #705744",
"oX c #735B45",
"OX c #7B624A",
"+X c #890505",
"@X c #941616",
"#X c #AB0000",
"$X c #A21210",
"%X c #B4120D",
"&X c #8D2525",
"*X c #862B26",
"=X c #932A2A",
"-X c #992C2C",
";X c #873529",
":X c #953A2D",
">X c #8E3B30",
",X c #9C3333",
"<X c #953C32",
"1X c #A43939",
"2X c #B72626",
"3X c #C20000",
"4X c #D60000",
"5X c #87432C",
"6X c #82542E",
"7X c #8A4733",
"8X c #914438",
"9X c #8A5A33",
"0X c #935E36",
"qX c #965035",
"wX c #A5493B",
"eX c #A3583D",
"rX c #9A6238",
"tX c #9A6436",
"yX c #A5683D",
"uX c #AB4942",
"iX c #B54A4A",
"pX c #B24747",
"aX c #B4584B",
"sX c #AD6F40",
"dX c #CB8454",
"fX c #D48C5B",
"gX c #E09664",
/* pixels */
"w &.&.r q q w a a &.w u a p q q 8 w &.a = X - - .   X 9 6.*.*.-.*.&.-.9.6.-.&.*.r.=.-.&.w w &.&.r q q w a a &.w u a p r.m.t w &.",
"G.~..X.X&.a 9.Z.G.~.A.m.V.q.Z.b.7.A.`.].9.=.:.q.7.9 q i. X].}.}.Q.Y._.XX XU.Q.}.XX{._.L.n.G.~..X.X&.a 9.Z.G.~.A.m.V.q.M.W.q.A.`.",
"].U.W.{.&.6.F.D.!.oX!.D.~.q.N.F.m.!.!.Q.i.V.`.].V.9.r V.`.W.Q.[.m.m.b.].b.i.D.`.V.m.n.Q.`.].U.[.[.6.6.F.D.!.oX!.D.~.q.; q 6.!.!.",
"C.M.M.N.q &.V.m.m. XF.M.A.i.M.m.9.C.G.m.9.i.A.W.V.i.r V.`.F.W.G.q.i.9.].m.i.i.W.m.M.W.F.D.C.M.].!.6.&.V.m.m. XF.M.i.*.q &.7.C.G.",
"V.U.4 ; ; 9 q.C.V.].V.A.A.i.n.m.i.A.F.i.9.r.i.P.V.q.r i.`.i.V.G.i.V.i.`.V.i.M.~.m.D.A.C.F.V.U.].`.&.7.q.C.V.].V.9.4 4 *.m.i.A.F.",
"N.Y.q q 2 4 w r.C.D.n.!.F.i.M.A.q.M.].i.i.p.Q.N.V.i.w i.`.V.D.D.i.i.i. Xi.p.m.M.[.M.C.i.m.N.Y.~.C.&.7.V.m.C.D.n.7.9 0 M.A.q.M.].",
"n.V.=.&.w 4 4 q q.V.i.U.W.i.!.[.V.V.D.C.V.i.V.A.V.9.w 9.A.m.D.`.M.G.i.].M.F.V.].W.m.A.m.n.n.m.~.C.&.i.F.m.i.V.N.&.{ 7.!.[.V.V.D.",
"i.n.V.9.w q 9 r r.A.C.L.W.6.9.A.9.F.].A.q.r.P.M.i.7.w 9.Y.7.V.D.r.U.V.A.V.6.V.V.C.P.M.Q.n.i.n.F.F.&.i.V.F.F.r.m.w r.6.9.A.9.F.].",
"i.p.C.i.&.9.r w M.`.A.Q.P.7.q.A.9.A.`.i.7.r.r.n.i.i.w 9.Y.7.V.V.6.m.9.].V.8.V.V.m.n.i.i.r.i.p.C.i.&.i.A._.&.7.&.&.P.7.q.A.9.A.`.",
"=.K.Q.t.i 6.V.&.w r.r.P.P.r.W.].C.].W.r.a &.=.i.i.i.q 9.n.i.i.r.6.m.r.~.!.b.6.V.m.q.C.m.r.=.K.Q.t.i 6.V.N.b.w &.F.P.r.W.].C.].W.",
":.:.:.=.w  .&.m.w w H [ >.&.r.q.r.m.r.%.w w &.6. .q q q r w w t r r r r w q w w r  .&.&.:.:.:.:.=.w 7.{.*.w  .7.7.9.&.r.q.r.m.r.",
"i.W.C.m.9.7.r.].6.; { $./ r.C.A.i.C.C.M.:.r.P.W.P.P.K.K.L.A.B.1 6 9.6.r 7.7.b.b.M.M.C.V.9.i.W.C.m.W.Q.U. .9. .a i.M.r.C.A.i.C.C.",
"[.XX_.].!.V.i.oXW.w ; q ~ x.oX[.].D.[.D.V.F.!.~.W.A.t.M.~..X.Xq q ].m.i..X!.`.].F.F.F.^.F.[.XX_.{.M.W.w ~.W.&.&.F.F.~.oX[.].D.[.",
"F.A.[.].!.i.i. X[.&. .i.5 >.8X(.F.A.].V.i.q.A.A.9.m.M.].i.].].e 6 F.i.i.`.A.A.`.i.7.r.V.i.F.A._.{.U.9.6. X[.&. .F.F.F.[.].F.A.].",
"M.].G.!.F.9.V. X].&.7.M.m.A _ *Xl.q.W.A.i.r.U.F.r.r.r.G.V.]. Xe 9 V.9.V.F.M.`.`.m.n.7.m.m.M.(.(.N.&.6.V. X].&.7.M.D.!. XC.q.q.W.",
"M.`.V.!.G.i.i.[.[.&.9.W.P.[ ! <X1X6.v.V.V.q.V.].*.7.i.].V.[.[.e 9 !.i.6.m.A.V.!.V.M.i.n.M.2.$X8Xw q.i.i.[.[.&.9.W.U.i.~.Q.W.6.v.",
"~..Xi.V.i.6.9. X X&.&.C.n.r.5 C >.4X%X~ 7.V.V.~.i.7.9.i.A.A.].r 0 m.i.9.C.].Q.].m.W.F.M.k.@X#X4.i.i.6.9. X X&.&.C.t.i.`.].].F.F.",
"A.`.C.m.m.6.9. X X&.i.].Y.m.i.w U 3X2XpXd.9.C.F.7.i.6.C.i.G.!.0 0 m.v.9.F.W.A.V.q.r.j.&X,X&XE &.m.m.6.9. X X&.i.].Y.m.M.m.D.b.C.",
"A.].i.i.i.9.r.^.^.&.i.F.i.i.~. .` +X-X1X=Xr.N.F.i.C. .i.i.].].&.w i.d  .F.G.P.A.r.P.7XpX1X_ C 9.i.i.9.r.^.^.&.i.F.i.i.~.i.U.A.V.",
"m.F.i.V.i.7.6.i.9.q w i.9.&.m. .q U ( -X-X*Xf.9.6.9.r &.6.7.b.u 9 d y q b.m.m.C.=.R.0XpX&XZ q i.V.i.7.6.i.9.q w i.9.&.m.7.9.F.m.",
"r &. . . .w q r w 0 6 r  .w r q w , n =X,X1X>X*.6 q q q q n.6X9XR.r 2 ; q q q w -.9X0X,X_ 5 q  . . .w q r w 0 6 r  .w r q r &.a ",
"A.].].A.`.F.F. X].`.i.m.{.W.i.&.6.d e ~ ,XiXaXrXW.F.D.W.L.yXfXgXdX9Xn.m.U.q w E.qXyXeX( ] 9.].].A.`.F.F. X].`.i.m.{.W.i.&.6.a.H.",
"`.]..X].A.m.A.A.D.F.7.m.N.W.C.&.9.m.7.0 ^ 1XwXwX7XY.C.C.>XsXdXfXdXtX).i.Q.n.6XeX:X5X<.] 9.D.]..X].A.m.A.A.D.D.7.m.N.W.C.&.9.m.F.",
"W.].].`.V.m.C.A.V.N.6.q.N.F.F.&.9.`.M.*.5 &X=Xl.*X;XI.K.) 6XrXrX0XR.;XI.N.9X0X6Xk.~ C &.W.W.].].`.V.m.C.A.V.N.6.q.N.F.F.&.9.`.M.",
"A.G..XG.A.i.~.V.i.b.6.b.C.G.m.&.i.V.M.r.w Q ;X|.=.~ &X_ j V L ;.~ [ X.L.L.R.n.|.#.' q F.[.A.G..XG.A.i.~.V.i.b.6.b.C.G.m.&.i.V.M.",
"~. X[.M.m.V.D.D.b.I.9.m.F.!.r. .i.D.U.n.&.< >.R.K.A =X_ j I U ^ U ..&.n.R.=.K.T.S 5 r W.!.~. XF.M.m.V.D.D.m.I.9.i.m.!.r. .i.D.U.",
"m.W. X].F.r.C.A.i.D.6.F.G.m.r. .q.D.C.i.9.4 > o.T.n.<X:XT x c I c w 1.6XR.=.R.$.M { q.F.].m.M.#.F.C.r.C.A.i.D.6.#.V.m.r. .q.D.C.",
"i.F. X].`.i.C.F.V.V. .m.C.m.m.&.r.m.M.i.&.0 2 > ,.n.:XwX) M j j j ;.<XtXR.K.1.N , t.W.!.`.9.F.^.].`.i.C.F.V.V. .m.C.m.m.&.r.m.M.",
"i.m.G.V.i.r.i.`.V.i.9.i.F.M.r. .A L A.B.&.q.w ; 9 n.l.yX&X` I c U K.uXtXR.T.w ;  .q.b.V...L ..C.V.i.r.i.`.V.i.9.i.F.M.r. .r.~.A.",
"r.q.m.q.:.r.b.m.q.q.6.7.i.P.t.&.b.u.;.N.r.&.&.4 ; w K.r.) @.I c ! #.<.9.g.#.& 4 i.M.r.r.7.7.6.m.q.:.r.b.m.9.q.6.7.i.P.t.&.b.F.r.",
"&.q q q q q q w q &.q q q q w q w 7 7 q 9 2 3 q ; ; l.7X=XB + $ + ! ,X8X;XG = 6  .&.&.*.w &.q q q q q q w q &.q q q q w q w 7 7 ",
"]. X.XXXW.M.F. X].`.q.A.[.[.W.i.i.W..XA.p w 7.[ < & >.<.b o O k =   Q @XU k z &.o.@.;.H ..*.*.e.].W.M.F. X].`.q.A.[.[.W.i.i.W..X",
"`.]..XXX!.A.G. XG.`.9.q.5.i.#.r.V.e.u.e.]  .7.b k j N U . O v R m @   +XA $ z i o.J I Z n A [ g.].!.i.G. XG.`.9.M.].].M.i.V.V..X",
"/.W.F.~. Xm.V.M.F.V.6.P.].9.X.7.*.L w.W.a ] K K x j : . o O c R P = . o O j c U X.X.Z n [ b.#.i.~.C.O.m.M.F.V.6.P.].V.m.i.r.o.G.",
"M.i.i.V.!.i.V.b.`.V.q.V. Xq.t.9.9.F.~.oX&.] K n c j # . o O x j # # # = @ x c A I [ H D @.#.i.w.#.!.i.V.b.`.V.q.V. X9.t.9.9.F.~.",
"O.m.4.X.F n ..#.V.D.6.i.4.[ n @.u.^.r.H 0 ] b x I x j $ # O +   o # $ j j c v I Z Z  .} K w  .q.i.V.s.i...I I 3.i.V.&.+.i.C.[.[.",
"].V.V...k v } V.].Q.6.i.A.A.7.6. .L H n B B c x c x x j j # # O # # j j x I c I I I U '  .| 6.^ / Q.M.A.m.m.p.6.+.w.n n ..K /.P.",
"G.F.A.F.B B i.N.A.Q.6.A.~.m.i.&.=.F.r.3.b x x x c x c j j # # $ # j j j c I I I c I U ' ..| 7.e.d.A.F.V.N.A.Q.6.A.A...w.&.=.C.t.",
"A.i.V.V.X.7.V.F.V.4.9.w.j.7.V.i.4.D v x < k x x x x c x j j # j j j j I c I x I c Z [ n S a w.9.q.i.u.m.u.u.V.i.i.].9.V.V.i.i.m.",
"D.i.C.V.9.9.F.N.F.h.9.4.[ } m.i.4.w.p.| M k c c x x x c j j j j j j j I x x x c x Z n [ H V.e.m.V.F.e.A.N.`.D.i.A.].9.m.V.i.i.W.",
"=.7.r.9. .&.=.=.7.9.r w [ Z I I Z [ ] ] D N c c x j h $ $ # # # # # $ $ $ h j j j k $ 9 [ c L o.w.;.&.=.=.7.9.r w %.w w w *.&. .",
"F.F.!.F.6.9.0.9.m.q.a &.m.i.e.L A Z Z b c x c m c c $ # $ $ $ $ $ $ $ $ $ h x I m h $ h m U T / ,.5.e.6.9.e.q.a 6.m.i.c.r.r.F.F.",
"W.G.oXoXq.i.i.D.].q.K O.M.P.M.e.H Z n I I c x U U c j j x j j j j j j j j c c I ( c x P H +.,._ h.e.f.e.i.z.oXm.M.].P.M.i.i.G.].",
"F.M. X[.i.i.u.M.D.C.j.F.V.O.&.X.$.K ] b c I c c I x j j j j $ % $ * j j j j c c c ( I ) T [ +.y.f.7.u.q.o.A. XW.D.!.A.q.r.n.F.G.",
"i.+.4.,.~ J I K i.C.K L q.m.7.7.O.A n b c I P x j j j j j j $ $ % $ j j j j j x x P c ) L | 3.y.h.y.O.4.i.0.>.+.8.A.m.q.i.r.F.G.",
"n.Y.W.M.7...H H | V.i.m.W.i.L @.X.n n c x c j j j j j j j j $ % $ * j j j I T I I T P T U T T | ..e.Z.W.@.~ ~ o.+.c.M.i.i.i.F.z.",
"M.Q.W.I.i.J.A.m.i.D.q.+.w.w.i.n.r.F v j x x j j c x j j j $ % $ % $ j j x ( I x I U ( Z H ^ f.| | ..q.j.A.i.D.q.i.V.i.i.n.n.C./.",
"M.F.~.D.q.F.M.M.M.m.[ | V.r.i.#.H b x c x c c c c x j j j % $ % j j j x x x c j n E _ _ U #.4.o.[ } F.M.M.u.m.&.F.V.r.i.q.q.F.A.",
"r.p.V.m.9.V. XF.D.q.8.F.} n X.A.5.K K n Z c j c x x h h j j j j j j j j c c P ( x c U S K  ...} F &.9.p.F.M.q.8.F.m.i.V.D.A.m.`.",
"=.K.^.M.=.c.].W.V. .X.m.} [ #.f.L n n I n c c c c x # # j j j j j j j j x c x U x j c [ Z {  .F 7.=.&.p.e.4.q.9.V.A.A.].V.V.~.F.",
"r.r.L.n.&.r.r.7.7.7.r r.6. .$.[ [ Z Z c M c c c P c # + j j j j j j j j j x x I I c U v [ | ....X.&.r.r.@.@.7.r r.6. .r.i.C.m.:.",
"&.&.*.&.w  .q w w q 1 w w q j j j j x x j j j j % O   o O O O O O O O O O h x x x x x x x l { *.&.w  .q w w q 1 w w q  . .w w q ",
"G.oX].G.V.W.Q.OX!.&.6.D.A.].[.q.O.A U U T U c c c c c x j j j j j j j x c I I U P c I U U b | i.F.V.W.Q.OX!.&.f f A.].[.i.9.p.a.",
"!.]._.].F.].G.XX]. .q.D.V.G.f.V.6.A U U ( c c j P c I x j j j j j j j x I c U ( I I I c I M c A O.5.].C.f.F. .f g V.G./.4.V.H m.",
"M.~.].].F.M.]. X].&.i.V.y.t...Z I U I n n c c I x x c x j j j j j j j x I I j x I c x x P E Z D [  .X.X.H H &.f g y.J 6.6.9.F.j.",
"M.G.V.F.~.A.~. X X&.=.C.&.S Z 0 F ] X.B I c c x j x c x j j j j j j x I I U c x I c x x I c x X.m.@.q.i.K H &.s #.8.d r.q &.O.~.",
"C.].A.].V.F.A.].]. .7.D.t.w.7.q a p.O.I c c I P c c x c j j j j j j c I j c c I c x x I U Z Z Z 5.V.F.A.j.F. .s w.r.i.;.q a A.^.",
"!..Xi.i.i.i.F. X X .*.C.M.M.;.| 0.7.Z I I c x c I P P U c j x x I c I I j j c c I c c V n K @.i.y.5.6.] ~. X .*.C.M.t.w.6.0.4.u.",
"A.].m.m.m.A.Q. X X .&.O.=.#.q.9.O.;.n I U c x x I P P U x j x j c c c I P x I c c I I S W +.j.m.5.U K [ V. X .a.~.M.i.u.9.i.=.&.",
"F.[.M.V.V.V.U.^.^. .d F.i.r.X.7.&.B I I I I I c I P c I I j j j c j c I I c x I U I Z A ~ u.z.M.m.O.k | W.^. .d m.O.m.!.q.P.V.m.",
"q.i.7.9.7.7.7.m.i.w s i.9.&.Z | q l b B v x x x x x c x x j j j c x x x c x j x c c B 9 q ] | 7.9.7.] ] 6.i.w s i.9.q.b.7.q.m.b.",
"V.C.m.m.V.m.C.[ [ m.r.K V 7.7.r V N N q B c c c j j j j c j j j j j j j j x j x c c v B B w 6.m.m.V.m.C.F.F.m.m.r.A.W.7. .r.C.C.",
"[.[.XX`.V.G.].!.D.D.V.W.U.[.[ 2 F 9.9.Z I I I I x I I I I j j U T T ( U U P c P I I I n A S A 4.O.i.....!.A.h.u.F.U..XC.7.F.`.].",
"`.].[.`.m.V.!.V.A.D.r.=.o.r.N , a O. .I I I I I c P I I I c x I I U U I I x j c c c I Z S A 7.C.i.m.i.V.V.V.| A 9.N.].C.&.m.D.V."
};
